<?xml version="1.0" encoding="UTF-8" standalone="no"?>
<svg
   width="24"
   height="24"
   viewBox="0 0 24 24"
   version="1.1"
   id="svg4"
   sodipodi:docname="bootstrap.svg"
   inkscape:version="1.2.2 (732a01da63, 2022-12-09)"
   xmlns:inkscape="http://www.inkscape.org/namespaces/inkscape"
   xmlns:sodipodi="http://sodipodi.sourceforge.net/DTD/sodipodi-0.dtd"
   xmlns="http://www.w3.org/2000/svg"
   xmlns:svg="http://www.w3.org/2000/svg">
  <defs
     id="defs8" />
  <sodipodi:namedview
     id="namedview6"
     pagecolor="#ffffff"
     bordercolor="#000000"
     borderopacity="0.25"
     inkscape:showpageshadow="2"
     inkscape:pageopacity="0.0"
     inkscape:pagecheckerboard="0"
     inkscape:deskcolor="#d1d1d1"
     showgrid="false"
     inkscape:zoom="34.875"
     inkscape:cx="11.985663"
     inkscape:cy="12.014337"
     inkscape:window-width="1366"
     inkscape:window-height="705"
     inkscape:window-x="-8"
     inkscape:window-y="-8"
     inkscape:window-maximized="1"
     inkscape:current-layer="svg4" />
  <path
     d="M18.002 2.997H5.999A3.011 3.011 0 0 0 2.997 6v12.002a3.012 3.012 0 0 0 3.002 3.001h12.003a3.012 3.012 0 0 0 3.001-3.001V6a3.012 3.012 0 0 0-3.001-3.003zm-1.64 12.647c-.152.36-.389.68-.693.927a3.594 3.594 0 0 1-1.206.614c-.49.151-1.074.229-1.75.229H7.888V6.909h5.103c.943 0 1.7.213 2.267.646.569.436.854 1.082.854 1.958 0 .528-.13.983-.389 1.357-.259.373-.63.664-1.111.868v.034c.642.135 1.137.438 1.464.912.327.473.493 1.069.493 1.789 0 .405-.078.788-.225 1.147l.02.021v.003zm-2.084-2.589c-.309-.282-.739-.419-1.297-.419H9.737v3.276h3.253c.554 0 .991-.144 1.298-.435.308-.289.464-.701.464-1.229-.005-.518-.156-.919-.464-1.193h-.014.004zm-.451-2.119c.299-.251.444-.613.444-1.084 0-.526-.131-.902-.397-1.116-.264-.214-.646-.326-1.146-.326H9.727v2.898h3.001c.436.001.81-.127 1.099-.372z"
     id="path2"
     style="fill:#ffffff" />
</svg>
