<?xml version="1.0" encoding="UTF-8" standalone="no"?>
<svg
   width="24"
   height="24"
   viewBox="0 0 24 24"
   version="1.1"
   id="svg4"
   sodipodi:docname="data.svg"
   inkscape:version="1.2.2 (732a01da63, 2022-12-09)"
   xmlns:inkscape="http://www.inkscape.org/namespaces/inkscape"
   xmlns:sodipodi="http://sodipodi.sourceforge.net/DTD/sodipodi-0.dtd"
   xmlns="http://www.w3.org/2000/svg"
   xmlns:svg="http://www.w3.org/2000/svg">
  <defs
     id="defs8" />
  <sodipodi:namedview
     id="namedview6"
     pagecolor="#ffffff"
     bordercolor="#000000"
     borderopacity="0.25"
     inkscape:showpageshadow="2"
     inkscape:pageopacity="0.0"
     inkscape:pagecheckerboard="0"
     inkscape:deskcolor="#d1d1d1"
     showgrid="false"
     inkscape:zoom="34.875"
     inkscape:cx="11.985663"
     inkscape:cy="12.014337"
     inkscape:window-width="1366"
     inkscape:window-height="705"
     inkscape:window-x="-8"
     inkscape:window-y="-8"
     inkscape:window-maximized="1"
     inkscape:current-layer="svg4" />
  <path
     d="M20 17V7c0-2.168-3.663-4-8-4S4 4.832 4 7v10c0 2.168 3.663 4 8 4s8-1.832 8-4zM12 5c3.691 0 5.931 1.507 6 1.994C17.931 7.493 15.691 9 12 9S6.069 7.493 6 7.006C6.069 6.507 8.309 5 12 5zM6 9.607C7.479 10.454 9.637 11 12 11s4.521-.546 6-1.393v2.387c-.069.499-2.309 2.006-6 2.006s-5.931-1.507-6-2V9.607zM6 17v-2.393C7.479 15.454 9.637 16 12 16s4.521-.546 6-1.393v2.387c-.069.499-2.309 2.006-6 2.006s-5.931-1.507-6-2z"
     id="path2"
     style="fill:#ffffff" />
</svg>
