<?xml version="1.0" encoding="UTF-8" standalone="no"?>
<svg
   width="24"
   height="24"
   viewBox="0 0 24 24"
   version="1.1"
   id="svg4"
   sodipodi:docname="php.svg"
   inkscape:version="1.2.2 (732a01da63, 2022-12-09)"
   xmlns:inkscape="http://www.inkscape.org/namespaces/inkscape"
   xmlns:sodipodi="http://sodipodi.sourceforge.net/DTD/sodipodi-0.dtd"
   xmlns="http://www.w3.org/2000/svg"
   xmlns:svg="http://www.w3.org/2000/svg">
  <defs
     id="defs8" />
  <sodipodi:namedview
     id="namedview6"
     pagecolor="#ffffff"
     bordercolor="#000000"
     borderopacity="0.25"
     inkscape:showpageshadow="2"
     inkscape:pageopacity="0.0"
     inkscape:pagecheckerboard="0"
     inkscape:deskcolor="#d1d1d1"
     showgrid="false"
     inkscape:zoom="34.875"
     inkscape:cx="11.985663"
     inkscape:cy="12.014337"
     inkscape:window-width="1366"
     inkscape:window-height="705"
     inkscape:window-x="-8"
     inkscape:window-y="-8"
     inkscape:window-maximized="1"
     inkscape:current-layer="svg4" />
  <path
     d="M2.15 16.78h1.57a.14.14 0 0 0 .14-.12l.35-1.82h1.22a4.88 4.88 0 0 0 1.51-.2A2.79 2.79 0 0 0 8 14a3.18 3.18 0 0 0 .67-.85 3.43 3.43 0 0 0 .36-1 2.43 2.43 0 0 0-.41-2.16 2.64 2.64 0 0 0-2.09-.78h-3a.16.16 0 0 0-.15.13L2 16.6a.19.19 0 0 0 0 .13.17.17 0 0 0 .15.05zM5 10.62h1a1.45 1.45 0 0 1 1.08.29c.17.18.2.52.11 1a1.81 1.81 0 0 1-.57 1.12 2.17 2.17 0 0 1-1.33.33h-.8zm9.8-.95a2.7 2.7 0 0 0-1.88-.51h-1.19l.33-1.76a.15.15 0 0 0 0-.13.16.16 0 0 0-.11 0h-1.57a.14.14 0 0 0-.14.12l-1.38 7.27a.13.13 0 0 0 0 .12.13.13 0 0 0 .11.06h1.54a.14.14 0 0 0 .14-.13l.77-4.07h1.11c.45 0 .61.1.66.16a.81.81 0 0 1 0 .62l-.61 3.24a.13.13 0 0 0 0 .12.14.14 0 0 0 .11.06h1.56a.16.16 0 0 0 .15-.13l.64-3.4a1.7 1.7 0 0 0-.24-1.64zm4.52-.51h-3.13a.14.14 0 0 0-.15.13l-1.46 7.31a.16.16 0 0 0 0 .13.14.14 0 0 0 .11.05h1.63a.14.14 0 0 0 .15-.12l.37-1.82h1.27a5.28 5.28 0 0 0 1.56-.2 3 3 0 0 0 1.18-.64 3.31 3.31 0 0 0 .7-.85 3.45 3.45 0 0 0 .37-1 2.38 2.38 0 0 0-.42-2.16 2.81 2.81 0 0 0-2.18-.83zm.62 2.77a1.83 1.83 0 0 1-.6 1.12 2.28 2.28 0 0 1-1.37.33h-.8l.54-2.76h1a1.6 1.6 0 0 1 1.13.29c.16.18.16.52.1 1.02z"
     id="path2"
     style="fill:#ffffff" />
</svg>
