<?xml version="1.0" encoding="UTF-8" standalone="no"?>
<svg
   width="24"
   height="24"
   viewBox="0 0 24 24"
   version="1.1"
   id="svg6"
   sodipodi:docname="python.svg"
   inkscape:version="1.2.2 (732a01da63, 2022-12-09)"
   xmlns:inkscape="http://www.inkscape.org/namespaces/inkscape"
   xmlns:sodipodi="http://sodipodi.sourceforge.net/DTD/sodipodi-0.dtd"
   xmlns="http://www.w3.org/2000/svg"
   xmlns:svg="http://www.w3.org/2000/svg">
  <defs
     id="defs10" />
  <sodipodi:namedview
     id="namedview8"
     pagecolor="#ffffff"
     bordercolor="#000000"
     borderopacity="0.25"
     inkscape:showpageshadow="2"
     inkscape:pageopacity="0.0"
     inkscape:pagecheckerboard="0"
     inkscape:deskcolor="#d1d1d1"
     showgrid="false"
     inkscape:zoom="34.875"
     inkscape:cx="11.985663"
     inkscape:cy="12.014337"
     inkscape:window-width="1366"
     inkscape:window-height="705"
     inkscape:window-x="-8"
     inkscape:window-y="-8"
     inkscape:window-maximized="1"
     inkscape:current-layer="svg6" />
  <path
     d="M9.585 11.692h4.328s2.432.039 2.432-2.35V5.391S16.714 3 11.936 3C7.362 3 7.647 4.983 7.647 4.983l.006 2.055h4.363v.617H5.92s-2.927-.332-2.927 4.282 2.555 4.45 2.555 4.45h1.524v-2.141s-.083-2.554 2.513-2.554zm-.056-5.74a.784.784 0 1 1 0-1.57.784.784 0 1 1 0 1.57z"
     id="path2"
     style="fill:#ffffff" />
  <path
     d="M18.452 7.532h-1.524v2.141s.083 2.554-2.513 2.554h-4.328s-2.432-.04-2.432 2.35v3.951s-.369 2.391 4.409 2.391c4.573 0 4.288-1.983 4.288-1.983l-.006-2.054h-4.363v-.617h6.097s2.927.332 2.927-4.282-2.555-4.451-2.555-4.451zm-3.981 10.436a.784.784 0 1 1 0 1.57.784.784 0 1 1 0-1.57z"
     id="path4"
     style="fill:#ffffff" />
</svg>
