<?xml version="1.0" encoding="UTF-8" standalone="no"?>
<svg
   width="24"
   height="24"
   viewBox="0 0 24 24"
   version="1.1"
   id="svg4"
   sodipodi:docname="wordpress.svg"
   inkscape:version="1.2.2 (732a01da63, 2022-12-09)"
   xmlns:inkscape="http://www.inkscape.org/namespaces/inkscape"
   xmlns:sodipodi="http://sodipodi.sourceforge.net/DTD/sodipodi-0.dtd"
   xmlns="http://www.w3.org/2000/svg"
   xmlns:svg="http://www.w3.org/2000/svg">
  <defs
     id="defs8" />
  <sodipodi:namedview
     id="namedview6"
     pagecolor="#ffffff"
     bordercolor="#000000"
     borderopacity="0.25"
     inkscape:showpageshadow="2"
     inkscape:pageopacity="0.0"
     inkscape:pagecheckerboard="0"
     inkscape:deskcolor="#d1d1d1"
     showgrid="false"
     inkscape:zoom="34.875"
     inkscape:cx="11.985663"
     inkscape:cy="21.189964"
     inkscape:window-width="1366"
     inkscape:window-height="705"
     inkscape:window-x="-8"
     inkscape:window-y="-8"
     inkscape:window-maximized="1"
     inkscape:current-layer="svg4" />
  <path
     d="M19.891 7.788a8.966 8.966 0 0 1 1.099 4.313 8.986 8.986 0 0 1-4.47 7.771l2.746-7.939c.513-1.282.684-2.309.684-3.219a7.165 7.165 0 0 0-.059-.926m-6.651.087a14.14 14.14 0 0 0 1.026-.088c.485-.063.428-.775-.056-.749 0 0-1.463.112-2.4.112-.887 0-2.375-.125-2.375-.125-.487-.024-.55.713-.061.738 0 0 .449.052.938.075l1.399 3.838-1.975 5.899-3.274-9.724a17.006 17.006 0 0 0 1.028-.083c.487-.063.43-.775-.055-.747 0 0-1.455.115-2.395.115-.167 0-.365-.007-.575-.013C6.093 4.726 8.862 3.113 12 3.113c2.341 0 4.471.894 6.071 2.36-.038-.002-.076-.008-.117-.008-.883 0-1.51.77-1.51 1.596 0 .741.427 1.369.883 2.108.343.601.742 1.37.742 2.481 0 .763-.295 1.662-.685 2.899l-.896 2.987-3.25-9.675.002.014zM12 21.087a8.983 8.983 0 0 1-2.54-.364l2.697-7.838 2.763 7.572c.021.044.042.085.065.124a9.016 9.016 0 0 1-2.985.508m-8.99-8.988a8.94 8.94 0 0 1 .778-3.658l4.287 11.749a8.993 8.993 0 0 1-5.065-8.091m8.99-10c-5.513 0-10 4.487-10 10s4.487 10 10 10 10-4.487 10-10-4.487-10-10-10"
     id="path2"
     style="fill:#ffffff" />
</svg>
